<svg xmlns="http://www.w3.org/2000/svg" width="128" height="128" viewBox="0 0 128 128" fill="none">
  <g stroke="white" stroke-width="8" stroke-linecap="round">
    <line x1="24" y1="52" x2="24" y2="76"/>
    <line x1="40" y1="36" x2="40" y2="92"/>
    <line x1="56" y1="46" x2="56" y2="82"/>
  </g>
  <g transform="translate(30,22) scale(3.5)" stroke="white" stroke-width="2.2" stroke-linecap="round" stroke-linejoin="round" fill="none">
    <path d="M17 22h-1a4 4 0 0 1-4-4V6a4 4 0 0 1 4-4h1"/>
    <path d="M7 22h1a4 4 0 0 0 4-4v-1"/>
    <path d="M7 2h1a4 4 0 0 1 4 4v1"/>
  </g>
  <g stroke="white" stroke-width="8" stroke-linecap="round">
    <line x1="88" y1="46" x2="88" y2="82"/>
    <line x1="104" y1="52" x2="104" y2="76"/>
  </g>
</svg>
